<svg id="Layer_1" data-name="Layer 1" xmlns="http://www.w3.org/2000/svg" viewBox="0 0 127.56 131.07"><defs><style>.cls-1{fill:#ff4b00;}.cls-2{fill:#fff;}</style></defs><title>dolittle_negativ_kvadratisk</title><rect class="cls-1" width="127.56" height="131.07"/><path class="cls-2" d="M58.14,40.24H46.9a2,2,0,0,0-1.69,1L39.59,51a1.94,1.94,0,0,0,0,1.95l5.62,9.74a2,2,0,0,0,1.69,1H58.14a2,2,0,0,0,1.69-1l5.62-9.74a1.94,1.94,0,0,0,0-1.95l-5.62-9.74a2,2,0,0,0-1.69-1Z"/><path class="cls-2" d="M75.84,14.41a1,1,0,0,0-1.66,0L65.09,30.16a1.62,1.62,0,0,0,0,1.62L76.37,51.32a1.19,1.19,0,0,1,0,1.21L65,72.28a1.2,1.2,0,0,1-1,.61H41.35a1.62,1.62,0,0,0-1.4.8L30.86,89.44a1,1,0,0,0,.83,1.44H72.51a4.32,4.32,0,0,0,3.74-2.16l20-34.63a4.33,4.33,0,0,0,0-4.32Z"/><path class="cls-2" d="M34.16,108.23v0a6.27,6.27,0,0,1,12.53,0v0a6.27,6.27,0,0,1-12.53,0Zm9.82,0v0a3.59,3.59,0,0,0-3.56-3.72,3.53,3.53,0,0,0-3.55,3.66v0a3.59,3.59,0,0,0,3.56,3.72A3.54,3.54,0,0,0,44,108.27Z"/><path class="cls-2" d="M34.16,108.23v0a6.27,6.27,0,0,1,12.53,0v0a6.27,6.27,0,0,1-12.53,0Zm9.82,0v0a3.59,3.59,0,0,0-3.56-3.72,3.53,3.53,0,0,0-3.55,3.66v0a3.59,3.59,0,0,0,3.56,3.72A3.54,3.54,0,0,0,44,108.27Z"/><path class="cls-2" d="M21.69,103.06a.79.79,0,0,1,.8-.79h3.8c3.71,0,6.26,2.57,6.24,5.89v0c0,3.32-2.58,5.88-6.28,5.87l-3.8,0a.79.79,0,0,1-.79-.8Zm4.57,8.67a3.35,3.35,0,0,0,3.56-3.51v0a3.38,3.38,0,0,0-3.54-3.57h-2l0,7.1Z"/><path class="cls-2" d="M48.69,103.5a1.29,1.29,0,0,1,1.43-1.28,1.32,1.32,0,0,1,1.16,1.35l0,8.17,4.75,0a1.2,1.2,0,0,1,1.21,1A1.18,1.18,0,0,1,56,114.12l-6.58,0a.79.79,0,0,1-.8-.8Z"/><path class="cls-2" d="M59.23,103.5a1.3,1.3,0,1,1,2.59,0l0,9.39a1.3,1.3,0,1,1-2.59,0Z"/><path class="cls-2" d="M67.35,104.7H64.86a1.2,1.2,0,1,1,0-2.39l7.57,0a1.2,1.2,0,1,1,0,2.39h-2.5l0,8.2a1.3,1.3,0,1,1-2.59,0Z"/><path class="cls-2" d="M78.27,104.7H75.78a1.2,1.2,0,1,1,0-2.39l7.57,0a1.2,1.2,0,1,1,0,2.39h-2.5l0,8.2a1.3,1.3,0,1,1-2.59,0Z"/><path class="cls-2" d="M86.44,103.49a1.28,1.28,0,0,1,1.42-1.28A1.32,1.32,0,0,1,89,103.56l0,8.17,4.75,0a1.2,1.2,0,0,1,1.21,1,1.18,1.18,0,0,1-1.17,1.37l-6.59,0a.79.79,0,0,1-.79-.8Z"/><path class="cls-2" d="M96.83,113.28l0-10.19a.8.8,0,0,1,.8-.79l7,0a1.22,1.22,0,0,1,1.22,1.06,1.15,1.15,0,0,1-1.16,1.25l-5.26,0V107l4.43,0a1.19,1.19,0,0,1,1.21,1,1.14,1.14,0,0,1-1.16,1.25H99.42v2.47l5.27,0a1.21,1.21,0,0,1,1.22,1.06,1.15,1.15,0,0,1-1.16,1.25l-7.11,0A.8.8,0,0,1,96.83,113.28Z"/><path class="cls-2" d="M96.83,113.28l0-10.19a.8.8,0,0,1,.8-.79l7,0a1.22,1.22,0,0,1,1.22,1.06,1.15,1.15,0,0,1-1.16,1.25l-5.26,0V107l4.43,0a1.19,1.19,0,0,1,1.21,1,1.14,1.14,0,0,1-1.16,1.25H99.42v2.47l5.27,0a1.21,1.21,0,0,1,1.22,1.06,1.15,1.15,0,0,1-1.16,1.25l-7.11,0A.8.8,0,0,1,96.83,113.28Z"/></svg>