<?xml version="1.0" encoding="UTF-8"?><svg id="a" xmlns="http://www.w3.org/2000/svg" viewBox="0 0 13.59 16"><defs><style>.d{fill:#ff6f33;}</style></defs><g id="b"><g id="c"><g><path class="d" d="M2.98,10.14c.04,.06,.09,.11,.15,.15s.13,.05,.2,.06h2.31c.07,0,.14-.02,.2-.06s.11-.09,.15-.15l1.15-2.02c.04-.06,.06-.14,.06-.21s-.02-.14-.06-.21l-1.15-2.02c-.04-.06-.09-.11-.15-.15s-.13-.06-.2-.06H3.33c-.07,0-.14,.02-.2,.06s-.11,.09-.15,.15l-1.15,2.02c-.04,.06-.06,.14-.06,.21s.02,.14,.06,.21l1.15,2.02Z"/><path class="d" d="M13.47,7.45L9.27,.1s-.07-.08-.12-.09C9.1,0,9.05,0,9,.03c-.03,.02-.05,.04-.07,.07l-1.87,3.28s-.04,.11-.04,.17,.01,.12,.04,.17l2.32,4.06s.03,.08,.03,.12-.01,.09-.03,.12l-2.35,4.11s-.05,.07-.09,.09-.08,.03-.12,.04H2.18c-.06,0-.12,.01-.17,.04-.05,.03-.09,.07-.12,.12L.03,15.7s-.02,.05-.02,.07v.08s.02,.05,.03,.07c.02,.02,.04,.04,.06,.05,.03,.02,.07,.03,.1,.03H8.59c.16,0,.31-.04,.44-.12,.13-.08,.25-.19,.32-.33l4.11-7.2c.08-.14,.12-.29,.12-.45s-.04-.31-.12-.45h.01Z"/></g></g></g></svg>