<svg viewBox="0 0 793 1024" fill="none" xmlns="http://www.w3.org/2000/svg">
    <path d="M156.104 258.728H-27.2735C-32.8265 258.853 -38.2567 260.404 -43.0538 263.235C-47.851 266.066 -51.8575 270.083 -54.6969 274.91L-146.386 435.64C-149.254 440.663 -150.763 446.36 -150.763 452.16C-150.763 457.96 -149.254 463.657 -146.386 468.68L-54.6969 629.325C-51.8878 634.18 -47.8882 638.219 -43.0844 641.054C-38.2805 643.889 -32.8349 645.423 -27.2735 645.508H156.104C161.662 645.407 167.102 643.866 171.903 641.033C176.704 638.199 180.706 634.169 183.528 629.325L275.217 468.68C278.084 463.657 279.594 457.96 279.594 452.16C279.594 446.36 278.084 440.663 275.217 435.64L183.528 274.91C180.682 270.089 176.674 266.075 171.879 263.245C167.083 260.415 161.656 258.861 156.104 258.728Z" fill="url(#paint0_linear_4075_123197)"/>
    <path d="M444.881 -167.678C442.776 -171.293 439.346 -173.922 435.335 -174.995C431.324 -176.069 427.057 -175.498 423.459 -173.409C421.137 -171.993 419.191 -170.026 417.791 -167.678L269.338 92.4233C267.083 96.5064 265.898 101.105 265.898 105.782C265.898 110.459 267.083 115.058 269.338 119.141L453.716 441.865C455.478 444.862 456.407 448.283 456.407 451.769C456.407 455.254 455.478 458.676 453.716 461.672L267.171 787.768C265.554 790.825 263.153 793.385 260.22 795.18C257.286 796.974 253.929 797.937 250.5 797.966H-118.089C-122.764 797.849 -127.383 799.008 -131.461 801.322C-135.539 803.636 -138.925 807.018 -141.261 811.114L-289.464 1071.22C-290.495 1073.02 -291.164 1075.01 -291.432 1077.08C-291.701 1079.14 -291.565 1081.24 -291.03 1083.25C-290.496 1085.26 -289.575 1087.15 -288.319 1088.8C-287.064 1090.45 -285.498 1091.84 -283.713 1092.88C-281.199 1094.39 -278.3 1095.12 -275.377 1094.98H391.035C403.436 1094.94 415.607 1091.59 426.32 1085.27C437.032 1078.95 445.907 1069.89 452.049 1058.99L778.129 487.463C784.392 476.649 787.694 464.343 787.694 451.811C787.694 439.279 784.392 426.973 778.129 416.159L444.881 -167.678Z" fill="url(#paint1_linear_4075_123197)"/>
    <defs>
        <linearGradient id="paint0_linear_4075_123197" x1="64.4154" y1="258.728" x2="64.4154" y2="645.508" gradientUnits="userSpaceOnUse">
            <stop stop-color="#202128" stop-opacity="0.9"/>
            <stop offset="1" stop-color="#23252E" stop-opacity="0.05"/>
        </linearGradient>
        <linearGradient id="paint1_linear_4075_123197" x1="265.5" y1="-125.5" x2="248.064" y2="1095" gradientUnits="userSpaceOnUse">
            <stop stop-color="#202128"/>
            <stop offset="1" stop-color="#23252E" stop-opacity="0"/>
        </linearGradient>
    </defs>
</svg>
